<svg width="16" height="16" viewBox="0 0 16 16" fill="none" xmlns="http://www.w3.org/2000/svg">
<circle cx="8" cy="8" r="7.5" fill="black" stroke="black"/>
<path d="M5.20087 14.6986L5.98661 12.7613L6.29145 12.8865L5.55826 14.8454L5.20087 14.6986ZM6.44447 12.0404C6.50929 12.067 6.5558 12.1133 6.58399 12.1791C6.61219 12.2449 6.61356 12.3105 6.58811 12.3758C6.56265 12.4411 6.5176 12.4876 6.45294 12.5153C6.38829 12.543 6.32355 12.5435 6.25873 12.5169C6.19391 12.4902 6.1474 12.444 6.1192 12.3782C6.09101 12.3123 6.08964 12.2468 6.11509 12.1815C6.13195 12.1383 6.15837 12.1031 6.19437 12.0759C6.2295 12.0483 6.26932 12.0309 6.31383 12.0236C6.35712 12.0168 6.40067 12.0224 6.44447 12.0404Z" fill="white"/>
<path d="M3.83643 13.8699L5.03755 12.159L5.30517 12.3513L4.1502 14.0953L3.83643 13.8699ZM5.64514 11.5604C5.70205 11.6013 5.73674 11.6571 5.74922 11.7279C5.7617 11.7986 5.7482 11.8629 5.70872 11.9208C5.66924 11.9787 5.61498 12.0138 5.54595 12.026C5.47691 12.0381 5.41394 12.0238 5.35703 11.9829C5.30012 11.942 5.26543 11.8862 5.25294 11.8154C5.24046 11.7447 5.25396 11.6803 5.29344 11.6225C5.31959 11.5841 5.35321 11.5558 5.39431 11.5376C5.43464 11.5187 5.47724 11.5109 5.52211 11.514C5.56568 11.5173 5.60669 11.5328 5.64514 11.5604Z" fill="white"/>
<path d="M2.69357 12.7447L4.25209 11.3517L4.46865 11.6001L2.94746 13.0359L2.69357 12.7447ZM4.97965 10.907C5.0257 10.9598 5.04674 11.0221 5.04276 11.0939C5.03878 11.1657 5.01098 11.2253 4.95938 11.2727C4.90777 11.3201 4.84699 11.3418 4.77705 11.338C4.70711 11.3341 4.64911 11.3057 4.60306 11.2529C4.55701 11.2001 4.53597 11.1378 4.53995 11.066C4.54393 10.9942 4.57173 10.9346 4.62334 10.8872C4.65751 10.8558 4.69667 10.8359 4.74082 10.8275C4.78435 10.8184 4.82759 10.8204 4.87054 10.8337C4.91217 10.8469 4.94854 10.8713 4.97965 10.907Z" fill="white"/>
<path d="M1.83055 11.3835L3.66773 10.386L3.82253 10.6769L2.01204 11.7245L1.83055 11.3835ZM4.47862 10.1202C4.51154 10.1821 4.5179 10.2475 4.4977 10.3163C4.47749 10.3852 4.43683 10.4367 4.3757 10.471C4.31458 10.5053 4.25034 10.5125 4.18299 10.4928C4.11563 10.473 4.0655 10.4322 4.03258 10.3703C3.99966 10.3085 3.9933 10.2431 4.0135 10.1742C4.03371 10.1054 4.07437 10.0538 4.1355 10.0196C4.17597 9.99687 4.2187 9.98648 4.26369 9.9884C4.30823 9.98947 4.34995 10.0014 4.38883 10.0241C4.42645 10.0464 4.45638 10.0784 4.47862 10.1202Z" fill="white"/>
<path d="M1.29056 9.85701L3.30937 9.31341L3.39511 9.6316L1.39108 10.2301L1.29056 9.85701ZM4.16118 9.24285C4.17941 9.31051 4.17092 9.37543 4.13569 9.43759C4.10047 9.49976 4.04915 9.54042 3.98174 9.55955C3.91433 9.57869 3.84995 9.57088 3.78861 9.53613C3.72728 9.50138 3.68749 9.45017 3.66926 9.3825C3.65103 9.31484 3.65952 9.24993 3.69475 9.18776C3.72997 9.12559 3.78129 9.08494 3.8487 9.0658C3.89334 9.05313 3.93741 9.05292 3.98092 9.06517C4.02418 9.07652 4.06225 9.0977 4.09513 9.12872C4.12685 9.15909 4.14886 9.19713 4.16118 9.24285Z" fill="white"/>
<path d="M1.10082 8.24387L3.19109 8.18696L3.20385 8.51626L1.11578 8.62995L1.10082 8.24387ZM4.03767 8.31731C4.04039 8.38733 4.01764 8.44844 3.96944 8.50064C3.92123 8.55284 3.86212 8.58037 3.79211 8.58323C3.72209 8.58609 3.66103 8.56347 3.60894 8.51536C3.55685 8.46726 3.52945 8.40819 3.52674 8.33817C3.52402 8.26815 3.54677 8.20704 3.59497 8.15484C3.64318 8.10264 3.70229 8.07511 3.77231 8.07225C3.81867 8.07036 3.86171 8.08045 3.90142 8.10252C3.94109 8.12365 3.9735 8.15312 3.99866 8.19096C4.02284 8.22788 4.03584 8.27 4.03767 8.31731Z" fill="white"/>
<path d="M1.27152 6.62679L3.31747 7.06034L3.25668 7.38423L1.20025 7.00652L1.27152 6.62679ZM4.11201 7.38543C4.09908 7.4543 4.06337 7.50853 4.00487 7.54812C3.94638 7.58771 3.88276 7.60071 3.81402 7.58712C3.74527 7.57352 3.69091 7.53719 3.65093 7.47813C3.61096 7.41906 3.59743 7.35509 3.61036 7.28622C3.62328 7.21735 3.65899 7.16312 3.71749 7.12352C3.77598 7.08393 3.8396 7.07093 3.90835 7.08453C3.95387 7.09353 3.99349 7.11343 4.02721 7.14423C4.0611 7.1741 4.08608 7.21041 4.10215 7.25316C4.11745 7.2948 4.12074 7.33889 4.11201 7.38543Z" fill="white"/>
<path d="M1.79537 5.08921L3.6844 5.98732L3.55281 6.28945L1.64109 5.44344L1.79537 5.08921ZM4.38288 6.4891C4.3549 6.55335 4.30808 6.59802 4.24243 6.6231C4.17677 6.64818 4.1121 6.64611 4.04841 6.61688C3.98472 6.58765 3.94008 6.53957 3.91451 6.47262C3.88893 6.40567 3.89014 6.34008 3.91812 6.27583C3.9461 6.21158 3.99292 6.16692 4.05857 6.14184C4.12423 6.11675 4.1889 6.11883 4.25259 6.14805C4.29477 6.1674 4.32877 6.19603 4.35461 6.23393C4.38082 6.27096 4.39693 6.31221 4.40295 6.35768C4.40848 6.40189 4.40179 6.44569 4.38288 6.4891Z" fill="white"/>
<path d="M2.64723 3.71208L4.27811 5.02201L4.08185 5.28674L2.41713 4.02245L2.64723 3.71208ZM4.84269 5.67201C4.80095 5.72831 4.74537 5.76117 4.67592 5.77059C4.60648 5.78001 4.54415 5.76316 4.48892 5.72002C4.43369 5.67688 4.40125 5.61971 4.39159 5.54849C4.38192 5.47728 4.39796 5.41353 4.43969 5.35723C4.48142 5.30094 4.53701 5.26808 4.60646 5.25866C4.6759 5.24923 4.73823 5.26609 4.79346 5.30923C4.83003 5.33779 4.85656 5.37353 4.87306 5.41645C4.89012 5.45861 4.89642 5.50257 4.89195 5.54833C4.88731 5.59275 4.87088 5.63398 4.84269 5.67201Z" fill="white"/>
<path d="M3.78421 2.56924L5.07313 4.2168L4.82173 4.42988L3.48947 2.81906L3.78421 2.56924ZM5.47451 4.97856C5.42106 5.02387 5.35945 5.04319 5.28971 5.03654C5.21996 5.02988 5.16313 4.99925 5.11921 4.94465C5.07528 4.89005 5.05673 4.82697 5.06356 4.75541C5.07039 4.68386 5.10053 4.62542 5.15399 4.58011C5.20745 4.5348 5.26905 4.51548 5.33879 4.52213C5.40854 4.52879 5.46537 4.55941 5.5093 4.61402C5.53838 4.65017 5.55606 4.69103 5.56234 4.73659C5.56934 4.78154 5.56545 4.82578 5.55067 4.86933C5.53602 4.91153 5.51063 4.94794 5.47451 4.97856Z" fill="white"/>
<path d="M5.14691 1.72356L6.03077 3.61934L5.73705 3.76877L4.80255 1.89876L5.14691 1.72356ZM6.24956 4.4513C6.1871 4.48308 6.12259 4.48775 6.05604 4.46531C5.98948 4.44287 5.94097 4.4001 5.9105 4.337C5.88003 4.27389 5.87625 4.20836 5.89915 4.14041C5.92206 4.07245 5.96475 4.02259 6.0272 3.99081C6.08966 3.95904 6.15417 3.95437 6.22072 3.9768C6.28728 3.99924 6.33579 4.04201 6.36627 4.10512C6.38644 4.1469 6.39442 4.19064 6.3902 4.23634C6.38683 4.28161 6.37299 4.32371 6.34868 4.36263C6.3248 4.40028 6.29176 4.42983 6.24956 4.4513Z" fill="white"/>
<path d="M6.66237 1.22156L7.09991 3.26671L6.7795 3.34375L6.28671 1.31188L6.66237 1.22156ZM7.12678 4.12507C7.05865 4.14145 6.9946 4.13104 6.93463 4.09384C6.87467 4.05664 6.83689 4.00388 6.8213 3.93556C6.80571 3.86724 6.81673 3.80275 6.85437 3.74209C6.892 3.68142 6.94488 3.6429 7.01302 3.62652C7.08115 3.61014 7.1452 3.62055 7.20517 3.65774C7.26513 3.69494 7.30291 3.7477 7.3185 3.81602C7.32882 3.86126 7.32679 3.90557 7.31241 3.94896C7.29895 3.99213 7.27598 4.02979 7.24349 4.06195C7.21172 4.09296 7.17282 4.114 7.12678 4.12507Z" fill="white"/>
<path d="M8.24857 1.09091L8.22016 3.18182L7.89061 3.18182L7.8622 1.09091L8.24857 1.09091ZM8.05538 4.02273C7.98531 4.02273 7.92518 3.99763 7.87499 3.94744C7.8248 3.89725 7.7997 3.83712 7.7997 3.76705C7.7997 3.69697 7.8248 3.63684 7.87499 3.58665C7.92518 3.53646 7.98531 3.51136 8.05538 3.51136C8.12546 3.51136 8.18559 3.53646 8.23578 3.58665C8.28597 3.63684 8.31107 3.69697 8.31107 3.76705C8.31107 3.81345 8.29923 3.85606 8.27555 3.89489C8.25283 3.93371 8.22205 3.96496 8.18322 3.98864C8.14535 4.01136 8.10273 4.02273 8.05538 4.02273Z" fill="white"/>
<path d="M9.81966 1.33753L9.32687 3.3694L9.00646 3.29236L9.444 1.24721L9.81966 1.33753ZM8.97959 4.15071C8.91146 4.13433 8.85857 4.09581 8.82094 4.03515C8.78331 3.97448 8.77228 3.90999 8.78787 3.84167C8.80346 3.77335 8.84124 3.72059 8.90121 3.68339C8.96117 3.64619 9.02522 3.63578 9.09335 3.65217C9.16149 3.66855 9.21437 3.70707 9.252 3.76773C9.28964 3.8284 9.30066 3.89289 9.28507 3.96121C9.27475 4.00645 9.25376 4.04523 9.2221 4.07755C9.19137 4.11009 9.15449 4.13336 9.11147 4.14736C9.06959 4.16067 9.02563 4.16178 8.97959 4.15071Z" fill="white"/>
<path d="M11.2915 1.94664L10.357 3.81666L10.0633 3.66722L10.9471 1.77145L11.2915 1.94664ZM9.84448 4.49919C9.78202 4.46741 9.73934 4.41755 9.71643 4.34959C9.69352 4.28164 9.6973 4.21611 9.72777 4.15301C9.75824 4.0899 9.80675 4.04713 9.87331 4.02469C9.93987 4.00225 10.0044 4.00692 10.0668 4.0387C10.1293 4.07048 10.172 4.12034 10.1949 4.1883C10.2178 4.25625 10.214 4.32178 10.1835 4.38488C10.1634 4.42667 10.1343 4.45968 10.0963 4.4839C10.0592 4.50856 10.0181 4.52275 9.97324 4.52646C9.9296 4.52975 9.88668 4.52066 9.84448 4.49919Z" fill="white"/>
<path d="M12.5868 2.88371L11.2545 4.49454L11.0031 4.28146L12.292 2.6339L12.5868 2.88371ZM10.6017 5.04322C10.5483 4.99791 10.5181 4.93947 10.5113 4.86791C10.5045 4.79636 10.523 4.73328 10.567 4.67867C10.6109 4.62407 10.6677 4.59345 10.7375 4.58679C10.8072 4.58014 10.8688 4.59946 10.9223 4.64477C10.9757 4.69008 11.0059 4.74852 11.0127 4.82007C11.0195 4.89163 11.001 4.95471 10.957 5.00931C10.928 5.04547 10.8922 5.07102 10.8498 5.08596C10.8081 5.10152 10.7651 5.10597 10.7206 5.09931C10.6775 5.09253 10.6379 5.07383 10.6017 5.04322Z" fill="white"/>
<path d="M13.6388 4.09788L11.9741 5.36217L11.7778 5.09744L13.4087 3.78751L13.6388 4.09788ZM11.2133 5.74744C11.1715 5.69115 11.1555 5.6274 11.1652 5.55618C11.1748 5.48497 11.2073 5.42779 11.2625 5.38466C11.3177 5.34152 11.38 5.32466 11.4495 5.33409C11.5189 5.34351 11.5745 5.37637 11.6163 5.43266C11.658 5.48896 11.674 5.55271 11.6644 5.62392C11.6547 5.69514 11.6223 5.75231 11.567 5.79545C11.5305 5.82401 11.4898 5.84074 11.4451 5.84562C11.401 5.85126 11.358 5.84577 11.3163 5.82916C11.2758 5.81272 11.2415 5.78548 11.2133 5.74744Z" fill="white"/>
<path d="M14.3943 5.52477L12.4826 6.37079L12.351 6.06865L14.24 5.17055L14.3943 5.52477ZM11.6525 6.57044C11.6245 6.50619 11.6233 6.4406 11.6489 6.37365C11.6745 6.3067 11.7191 6.25862 11.7828 6.22939C11.8465 6.20016 11.9111 6.19809 11.9768 6.22317C12.0425 6.24825 12.0893 6.29292 12.1173 6.35717C12.1452 6.42141 12.1464 6.48701 12.1209 6.55396C12.0953 6.6209 12.0507 6.66899 11.987 6.69822C11.9448 6.71757 11.9013 6.72449 11.8566 6.71898C11.8122 6.71433 11.7715 6.69915 11.7345 6.67343C11.6987 6.64818 11.6714 6.61385 11.6525 6.57044Z" fill="white"/>
<path d="M14.8155 7.0903L12.759 7.46802L12.6982 7.14413L14.7442 6.71057L14.8155 7.0903ZM11.9037 7.46921C11.8908 7.40033 11.9043 7.33637 11.9443 7.2773C11.9843 7.21824 12.0386 7.18191 12.1074 7.16831C12.1761 7.15472 12.2397 7.16772 12.2982 7.20731C12.3567 7.2469 12.3924 7.30113 12.4053 7.37C12.4183 7.43888 12.4047 7.50285 12.3648 7.56191C12.3248 7.62098 12.2704 7.65731 12.2017 7.6709C12.1562 7.6799 12.1122 7.67653 12.0697 7.6608C12.0274 7.64599 11.9911 7.62181 11.9607 7.58824C11.9314 7.55542 11.9124 7.51574 11.9037 7.46921Z" fill="white"/>
<path d="M14.881 8.71424L12.7929 8.60056L12.8057 8.27126L14.8959 8.32817L14.881 8.71424ZM11.9591 8.40161C11.9618 8.33158 11.9892 8.27252 12.0413 8.22442C12.0934 8.17631 12.1544 8.15369 12.2244 8.15655C12.2944 8.15941 12.3536 8.18694 12.4018 8.23913C12.45 8.29133 12.4727 8.35245 12.47 8.42247C12.4673 8.49249 12.4399 8.55156 12.3878 8.59966C12.3357 8.64776 12.2746 8.67039 12.2046 8.66753C12.1583 8.66564 12.1161 8.65207 12.0783 8.62683C12.0404 8.60253 12.0103 8.57051 11.9882 8.53074C11.9669 8.49197 11.9572 8.44892 11.9591 8.40161Z" fill="white"/>
<path d="M14.5865 10.3132L12.5825 9.71476L12.6682 9.39657L14.687 9.94017L14.5865 10.3132ZM11.8164 9.32601C11.8346 9.25835 11.8744 9.20714 11.9357 9.17238C11.9971 9.13763 12.0615 9.12982 12.1289 9.14896C12.1963 9.1681 12.2476 9.20875 12.2828 9.27092C12.318 9.33309 12.3265 9.398 12.3083 9.46566C12.2901 9.53333 12.2503 9.58454 12.189 9.61929C12.1276 9.65404 12.0632 9.66185 11.9958 9.64271C11.9512 9.63004 11.9133 9.60697 11.8821 9.57351C11.8507 9.54096 11.8286 9.50271 11.8159 9.45876C11.8039 9.41598 11.8041 9.37173 11.8164 9.32601Z" fill="white"/>
<path d="M13.9455 11.8042L12.135 10.7566L12.2898 10.4657L14.127 11.4631L13.9455 11.8042ZM11.4789 10.1999C11.5119 10.1381 11.562 10.0972 11.6293 10.0775C11.6967 10.0577 11.7609 10.065 11.8221 10.0992C11.8832 10.1335 11.9239 10.1851 11.9441 10.2539C11.9643 10.3228 11.9579 10.3881 11.925 10.45C11.8921 10.5119 11.8419 10.5527 11.7746 10.5724C11.7072 10.5922 11.643 10.5849 11.5819 10.5507C11.5414 10.528 11.5098 10.4967 11.487 10.4568C11.4638 10.4178 11.451 10.3753 11.4486 10.3295C11.4466 10.2849 11.4567 10.2417 11.4789 10.1999Z" fill="white"/>
<path d="M12.9894 13.1084L11.4682 11.6725L11.6848 11.4241L13.2433 12.8171L12.9894 13.1084ZM10.9572 10.9794C11.0033 10.9266 11.0613 10.8982 11.1312 10.8944C11.2012 10.8905 11.2619 10.9122 11.3135 10.9596C11.3651 11.0071 11.3929 11.0666 11.3969 11.1384C11.4009 11.2102 11.3799 11.2725 11.3338 11.3253C11.2878 11.3782 11.2298 11.4065 11.1598 11.4104C11.0899 11.4143 11.0291 11.3925 10.9775 11.3451C10.9433 11.3137 10.9197 11.276 10.9067 11.2318C10.893 11.1884 10.8902 11.1441 10.8983 11.0988C10.9065 11.0549 10.9261 11.0151 10.9572 10.9794Z" fill="white"/>
<path d="M11.767 14.1549L10.612 12.4108L10.8796 12.2185L12.0808 13.9294L11.767 14.1549ZM10.272 11.6199C10.329 11.579 10.3919 11.5647 10.461 11.5769C10.53 11.589 10.5843 11.6241 10.6237 11.682C10.6632 11.7399 10.6767 11.8042 10.6642 11.8749C10.6518 11.9457 10.6171 12.0015 10.5602 12.0424C10.5032 12.0833 10.4403 12.0977 10.3712 12.0855C10.3022 12.0733 10.2479 12.0383 10.2085 11.9804C10.1823 11.942 10.1679 11.8999 10.1653 11.854C10.1619 11.8087 10.1692 11.7649 10.1874 11.7227C10.2054 11.6818 10.2336 11.6476 10.272 11.6199Z" fill="white"/>
<path d="M10.3427 14.8861L9.60946 12.9272L9.9143 12.802L10.7 14.7393L10.3427 14.8861ZM9.45644 12.0811C9.52126 12.0545 9.586 12.055 9.65066 12.0827C9.71531 12.1104 9.76037 12.1569 9.78582 12.2222C9.81127 12.2875 9.8099 12.3531 9.78171 12.4189C9.75351 12.4847 9.707 12.5309 9.64218 12.5576C9.57736 12.5842 9.51262 12.5837 9.44797 12.556C9.38331 12.5283 9.33826 12.4818 9.31281 12.4165C9.29595 12.3733 9.29142 12.3291 9.29922 12.2839C9.30614 12.2391 9.32326 12.1983 9.35057 12.1615C9.37735 12.1259 9.41265 12.0991 9.45644 12.0811Z" fill="white"/>
</svg>
